<svg width="128" height="128" viewBox="0 0 128 128" fill="none" xmlns="http://www.w3.org/2000/svg">
  <rect width="128" height="128" rx="28" fill="#020617"/>
  <rect x="16" y="16" width="96" height="96" rx="24" fill="#E2E8F0"/>
  <path d="M42 39C42 35.6863 44.6863 33 48 33H66C80.9117 33 93 45.0883 93 60C93 74.9117 80.9117 87 66 87H48C44.6863 87 42 84.3137 42 81V39Z" fill="#0EA5E9"/>
  <path d="M55 49C55 45.6863 57.6863 43 61 43H66C75.3888 43 83 50.6112 83 60C83 69.3888 75.3888 77 66 77H61C57.6863 77 55 74.3137 55 71V49Z" fill="#020617"/>
  <path d="M35 64C35 60.6863 37.6863 58 41 58H62V70H41C37.6863 70 35 67.3137 35 64Z" fill="#FB923C"/>
</svg>
